<svg version="1.1" viewBox="0.0 0.0 960.0 720.0" fill="none" stroke="none" stroke-linecap="square" stroke-miterlimit="10" xmlns:xlink="http://www.w3.org/1999/xlink" xmlns="http://www.w3.org/2000/svg"><clipPath id="p.0"><path d="m0 0l960.0 0l0 720.0l-960.0 0l0 -720.0z" clip-rule="nonzero"/></clipPath><g clip-path="url(#p.0)"><path fill="#000000" fill-opacity="0.0" d="m0 0l960.0 0l0 720.0l-960.0 0z" fill-rule="evenodd"/><path fill="#000000" fill-opacity="0.0" d="m70.13648 96.438324l438.3622 0l0 161.6063l-438.3622 0z" fill-rule="evenodd"/><path fill="#0000ff" d="m113.16773 234.26582q-2.0 0 -4.9375 -1.640625l0 -0.109375q-3.171875 -1.421875 -4.453125 -5.171875q-0.828125 -3.046875 -1.53125 -7.15625q-0.46875 -2.8125 -0.578125 -3.28125l-4.8125 0q-6.21875 -4.109375 -9.15625 -10.796875q-1.28125 -2.8125 -2.109375 -6.453125q-0.828125 -3.640625 -1.0625 -7.15625q-0.234375 -2.109375 -0.234375 -7.28125l0.234375 -9.609375q0.359375 -6.34375 0.359375 -9.5l-0.125 -3.765625l0 -4.578125q0 -7.03125 0.46875 -11.25q0.71875 -5.875 2.46875 -10.6875q1.875 -5.046875 5.640625 -7.03125q1.984375 -1.0625 4.328125 -1.0625q3.171875 0 5.875 1.296875q2.703125 1.28125 4.6875 3.515625q3.171875 3.75 5.171875 12.203125q1.40625 7.625 1.640625 15.484375q0.109375 2.46875 0.109375 8.09375l0 6.34375q-0.109375 2.6875 -0.109375 5.625l0 5.28125q0 10.5625 -1.359375 16.4375q-1.34375 5.859375 -5.796875 12.078125l0.46875 2.34375q0.703125 4.578125 1.515625 7.15625q1.171875 4.21875 2.9375 4.21875l0.46875 0q2.109375 0 3.28125 0.234375q1.765625 0.59375 1.765625 2.578125q0 3.640625 -5.15625 3.640625zm-12.09375 -20.875q0.828125 -1.53125 3.171875 -1.53125l0 0.125q4.34375 -4.0 4.34375 -12.671875l0 -31.5625q0 -7.515625 -0.359375 -12.5625q-0.46875 -6.5625 -2.109375 -12.3125q-0.8125 -2.9375 -2.046875 -4.8125q-1.234375 -1.875 -3.109375 -3.171875q-2.0 -1.28125 -4.234375 -1.28125q-2.109375 0 -3.515625 6.09375q-2.34375 9.265625 -2.9375 30.265625q-0.234375 8.21875 -0.234375 10.6875q0 5.046875 0.59375 11.609375q0.578125 7.15625 3.046875 13.84375q1.171875 3.28125 3.046875 5.21875q1.875 1.9375 4.34375 2.171875l0 -0.109375zm44.477867 6.453125q-2.828125 0 -5.0625 -1.234375q-2.21875 -1.234375 -3.625 -3.578125q-2.8125 -4.9375 -3.640625 -11.15625q-0.8125 -5.390625 -0.8125 -12.90625q-0.359375 -12.671875 -0.359375 -30.96875l-0.125 -9.03125q-0.109375 -0.703125 -0.109375 -2.34375q-0.234375 -4.46875 -0.234375 -5.40625q1.0625 -2.453125 2.46875 -2.453125q1.40625 0 2.515625 2.109375q1.109375 2.109375 1.109375 4.578125l0 31.90625q0 4.6875 0.828125 12.4375q0.828125 9.625 0.828125 12.4375q0 8.6875 7.390625 8.6875q8.4375 0 8.4375 -63.125l0 -6.578125l0 -1.046875q-0.109375 -0.359375 -0.109375 -0.9375q0 -1.421875 0.640625 -2.0625q0.640625 -0.640625 2.515625 -0.640625q1.53125 0 2.40625 0.890625q0.890625 0.875 1.125 2.046875q0.109375 0.703125 0.109375 2.6875q0 1.875 -0.34375 5.984375q-0.46875 3.40625 -0.46875 5.875q0 2.6875 -0.234375 4.8125l-0.234375 4.921875l0 0.9375q0.109375 0.46875 0.109375 1.0625q0 52.09375 -15.125 52.09375zm35.652344 -1.890625q-10.203125 0 -10.203125 -3.515625q0 -2.8125 3.640625 -2.8125l1.296875 0l1.171875 0.125q0.9375 0 1.28125 -0.59375q0.359375 -0.59375 0.359375 -2.109375q0 -2.0 -0.234375 -6.21875q-0.359375 -2.8125 -0.828125 -10.09375q-1.046875 -17.953125 -1.046875 -27.109375q0 -3.28125 0.109375 -5.96875l0.125 -5.984375q0 -3.875 -0.359375 -6.453125q-1.875 0.46875 -2.703125 0.46875q-2.8125 0 -2.8125 -2.828125q0 -1.40625 1.75 -2.453125q1.765625 -1.0625 4.46875 -1.53125q4.703125 -0.9375 8.328125 -0.9375q1.40625 0 2.40625 1.0q1.0 1.0 1.0 2.28125q0 1.296875 -0.765625 2.234375q-0.765625 0.9375 -1.9375 0.9375q-0.703125 0 -1.171875 -0.125l-0.9375 0q-1.171875 0 -1.703125 0.53125q-0.515625 0.53125 -0.515625 1.9375q0 11.390625 1.40625 34.265625q0.234375 4.21875 0.9375 12.4375q0.578125 5.390625 0.578125 11.03125l0 4.453125q0.703125 -0.125 2.34375 -0.125q4.9375 0 4.9375 4.109375l0 0.703125l-2.9375 2.0q-0.109375 0 -0.765625 0.0625q-0.640625 0.046875 -2.40625 0.046875q-3.75 0.234375 -4.8125 0.234375zm36.375534 1.765625q-2.578125 0 -5.453125 -0.765625q-2.875 -0.75 -4.40625 -1.703125q-7.859375 -5.03125 -7.859375 -27.5625l0 -3.171875l0 -3.640625l0 -2.8125q0 -4.6875 0.109375 -8.375q0.125 -3.703125 0.484375 -8.046875q0.34375 -4.578125 1.046875 -7.453125q0.71875 -2.875 2.359375 -6.515625q1.40625 -3.40625 3.453125 -5.28125q2.0625 -1.875 5.34375 -3.15625q2.9375 -1.296875 7.265625 -1.296875q1.765625 0 2.703125 0.828125q0.9375 0.8125 0.9375 2.109375q0 1.171875 -0.765625 2.109375q-0.75 0.9375 -1.8125 1.046875l-5.515625 0q-2.34375 0 -4.109375 2.9375q-1.75 2.9375 -2.453125 7.625q-1.53125 8.6875 -1.53125 14.078125l0 0.59375l-0.234375 11.265625q-0.234375 5.046875 -0.234375 11.375q0 4.453125 0.34375 7.28125q0.59375 4.21875 2.0 7.03125q1.40625 3.171875 4.8125 4.578125q1.765625 0.703125 3.875 0.703125q1.28125 0 2.578125 -0.9375q1.53125 0 2.515625 0.65625q1.0 0.640625 1.0 1.921875q0 4.578125 -6.453125 4.578125zm44.703293 0.359375q-2.703125 0 -5.75 -5.875q-4.5781097 -8.796875 -9.031235 -28.984375q-1.296875 -5.5 -2.109375 -10.203125q-4.21875 8.453125 -4.21875 20.421875l0 21.703125q0 2.703125 -2.359375 2.703125q-1.75 0 -2.875 -1.0q-1.109375 -1.0 -1.109375 -2.765625l0 -35.546875q0 -5.15625 1.171875 -19.0q1.171875 -12.09375 1.171875 -19.015625q0.9375 -2.21875 3.40625 -2.21875q1.53125 0 2.578125 1.0625q1.0625 1.046875 1.0625 2.5625l0 0.359375q-1.53125 2.578125 -1.53125 21.34375l0 4.234375l4.34375 -8.5625q3.984375 -8.328125 7.515625 -14.3125q3.2812347 -5.875 4.7968597 -5.875q1.890625 0 3.234375 0.828125q1.34375 0.8125 1.34375 2.34375l-2.8125 4.6875q-8.79686 14.203125 -9.85936 16.421875q0 2.0 -0.109375 3.53125l-0.125 3.515625q0 5.046875 4.046875 18.84375q4.0468597 13.78125 6.7499847 18.234375l1.53125 2.109375q2.21875 3.046875 2.21875 5.390625q0 1.296875 -1.0 2.171875q-0.984375 0.890625 -2.28125 0.890625zm41.426544 0.578125q-4.234375 0 -7.28125 -1.515625q-1.875 -1.0625 -1.875 -2.46875q0 -1.40625 0.703125 -2.28125q0.703125 -0.890625 2.0 -0.890625q1.171875 0 3.390625 0.9375q2.46875 0.9375 3.0625 0.9375q2.21875 0 4.03125 -1.9375q1.828125 -1.9375 2.890625 -5.09375q2.109375 -5.875 2.109375 -10.5625q0 -5.046875 -1.59375 -10.609375q-1.578125 -5.578125 -4.28125 -10.859375l-1.875 -3.75q-2.9375 -5.875 -4.515625 -9.265625q-1.578125 -3.40625 -2.75 -7.40625q-1.765625 -5.625 -1.765625 -10.90625q0 -4.21875 1.46875 -7.96875q1.46875 -3.765625 4.390625 -6.34375q2.9375 -2.8125 7.28125 -2.8125q2.109375 0 4.09375 1.234375q2.0 1.21875 2.828125 3.09375l-2.0 2.46875q-3.046875 0 -4.578125 -1.171875q-2.109375 0.234375 -3.6875 2.0625q-1.578125 1.8125 -2.40625 4.15625q-0.703125 2.234375 -0.703125 4.453125q0 4.46875 1.234375 9.109375q1.234375 4.625 3.21875 8.734375l8.21875 16.421875q2.0 4.21875 3.171875 9.5q1.171875 5.28125 1.171875 10.5625q0 7.75 -3.765625 14.546875q-1.984375 3.515625 -5.15625 5.5625q-3.171875 2.0625 -7.03125 2.0625zm36.019745 -4.453125l-0.125 -4.578125q-0.109375 -2.0 -0.109375 -4.453125l0.109375 -4.0q-0.34375 -1.28125 -1.765625 -25.6875q-1.40625 -24.40625 -1.640625 -31.328125q-6.796875 -0.234375 -8.671875 -1.40625q-1.296875 -0.9375 -1.296875 -2.109375q0 -0.9375 1.234375 -1.703125q1.234375 -0.765625 2.515625 -0.765625q3.296875 0 7.984375 0.46875q4.453125 0.59375 7.984375 0.59375l0.9375 0l0.9375 0q3.625 0 3.625 2.8125q0 1.40625 -1.171875 2.296875q-1.171875 0.875 -2.6875 0.875q-1.0625 0 -3.0625 -0.359375l-2.34375 -0.46875l-0.109375 0.59375l-0.125 0.578125q0 10.4375 2.0 33.328125q1.875 21.46875 1.875 33.3125q0 1.40625 -1.234375 2.46875q-1.234375 1.046875 -2.75 1.046875l-2.109375 -1.515625zm46.56726 2.9375q-2.6875 0 -3.984375 -0.828125q-1.296875 -0.828125 -1.296875 -3.046875q0 -3.515625 -1.171875 -11.96875l-0.46875 -2.46875l-11.609375 -1.75q-0.703125 2.6875 -2.0 10.90625q-0.703125 5.75 -2.21875 7.625q-0.828125 1.0625 -2.359375 1.0625q-1.40625 0 -2.578125 -0.875q-1.171875 -0.890625 -1.171875 -2.1875l0.234375 -0.578125l0.125 -0.46875q7.734375 -30.15625 11.734375 -59.484375q0 -0.46875 0.109375 -1.578125q0.125 -1.125 0.234375 -3.234375q0.359375 -4.34375 0.765625 -6.921875q0.40625 -2.578125 1.34375 -3.875l4.0 0q1.640625 0 2.8125 0.765625q1.171875 0.765625 1.171875 2.171875q0 8.90625 2.46875 26.515625q2.34375 18.0625 2.34375 25.34375q0 0.703125 0.578125 3.625q0.59375 2.703125 0.59375 3.53125q0 0.8125 1.171875 7.03125q1.046875 5.640625 1.046875 7.28125l0 0.109375q0 2.59375 -1.875 3.296875zm-7.734375 -22.53125q-0.359375 -1.765625 -0.359375 -4.34375q0 -10.5625 -1.875 -26.984375l-1.171875 -12.203125q-5.046875 27.578125 -6.921875 41.65625q1.765625 1.171875 10.328125 1.875zm26.28424 19.59375l-0.125 -4.578125q-0.109375 -2.0 -0.109375 -4.453125l0.109375 -4.0q-0.34375 -1.28125 -1.765625 -25.6875q-1.40625 -24.40625 -1.640625 -31.328125q-6.796875 -0.234375 -8.671875 -1.40625q-1.296875 -0.9375 -1.296875 -2.109375q0 -0.9375 1.234375 -1.703125q1.234375 -0.765625 2.515625 -0.765625q3.296875 0 7.984375 0.46875q4.453125 0.59375 7.984375 0.59375l0.9375 0l0.9375 0q3.625 0 3.625 2.8125q0 1.40625 -1.171875 2.296875q-1.171875 0.875 -2.6875 0.875q-1.0625 0 -3.0625 -0.359375l-2.34375 -0.46875l-0.109375 0.59375l-0.125 0.578125q0 10.4375 2.0 33.328125q1.875 21.46875 1.875 33.3125q0 1.40625 -1.234375 2.46875q-1.234375 1.046875 -2.75 1.046875l-2.109375 -1.515625zm25.56726 3.515625q-2.109375 -0.34375 -3.578125 -1.53125q-1.46875 -1.171875 -1.703125 -3.046875l1.296875 -1.984375q0.703125 0 2.234375 0.46875q1.75 0.34375 2.6875 0.34375q2.109375 0 3.8125 -1.875q1.703125 -1.875 2.53125 -4.921875q1.515625 -5.640625 1.515625 -10.09375q0 -7.75 -4.921875 -16.3125l-1.296875 -2.234375q-2.21875 -3.859375 -3.75 -6.90625q-1.515625 -3.0625 -2.578125 -6.578125q-1.40625 -4.578125 -1.40625 -9.15625q0 -5.15625 2.34375 -10.796875q1.171875 -2.6875 3.34375 -4.390625q2.171875 -1.703125 4.875 -1.703125q2.109375 0 3.921875 1.359375q1.828125 1.34375 1.828125 3.21875q0 1.046875 -0.828125 1.640625q-0.828125 0.578125 -2.0 0.578125q-1.28125 0 -2.453125 -0.703125q-2.59375 0.125 -4.109375 4.578125q-1.296875 4.109375 -1.296875 6.8125q0 3.40625 1.046875 6.875q1.0625 3.453125 2.71875 6.265625l2.578125 4.6875l4.109375 7.75q1.640625 3.28125 2.625 7.625q1.0 4.34375 1.0 8.796875q0 7.15625 -3.28125 13.609375q-1.640625 3.28125 -4.640625 5.28125q-2.984375 2.0 -6.625 2.0l0 0.34375z" fill-rule="nonzero"/><path fill="#000000" fill-opacity="0.0" d="m88.059296 203.56833l0 0c-0.40079498 -11.873917 1.2484741 -23.421494 4.150978 -29.06363c2.9025116 -5.642151 6.460846 -4.21756 8.955833 3.5854797c2.4949875 7.803055 3.4131012 20.378479 2.3107605 31.650604l-7.508362 -9.6987915z" fill-rule="evenodd"/><path fill="#000000" fill-opacity="0.0" d="m88.059296 203.56833l0 0c-0.40079498 -11.873917 1.2484741 -23.421494 4.150978 -29.06363c2.9025116 -5.642151 6.460846 -4.21756 8.955833 3.5854797c2.4949875 7.803055 3.4131012 20.378479 2.3107605 31.650604" fill-rule="evenodd"/><path stroke="#ff0000" stroke-width="1.0" stroke-linejoin="round" stroke-linecap="butt" d="m88.059296 203.56833l0 0c-0.40079498 -11.873917 1.2484741 -23.421494 4.150978 -29.06363c2.9025116 -5.642151 6.460846 -4.21756 8.955833 3.5854797c2.4949875 7.803055 3.4131012 20.378479 2.3107605 31.650604" fill-rule="evenodd"/><path fill="#000000" fill-opacity="0.0" d="m111.99107 155.50056l0 0c-3.0002365 3.6118164 -8.21917 4.427017 -12.177956 1.9022064c-3.958786 -2.5247955 -5.4205017 -7.6007385 -3.4108047 -11.844284l8.421211 3.9881897z" fill-rule="evenodd"/><path fill="#000000" fill-opacity="0.0" d="m111.99107 155.50056l0 0c-3.0002365 3.6118164 -8.21917 4.427017 -12.177956 1.9022064c-3.958786 -2.5247955 -5.4205017 -7.6007385 -3.4108047 -11.844284" fill-rule="evenodd"/><path stroke="#ff0000" stroke-width="1.0" stroke-linejoin="round" stroke-linecap="butt" d="m111.99107 155.50056l0 0c-3.0002365 3.6118164 -8.21917 4.427017 -12.177956 1.9022064c-3.958786 -2.5247955 -5.4205017 -7.6007385 -3.4108047 -11.844284" fill-rule="evenodd"/></g></svg>